<svg xmlns="http://www.w3.org/2000/svg" viewBox="0 0 900 1200" role="img" aria-label="Черный костюм">
  <defs>
    <linearGradient id="bg" x1="0" x2="1" y1="0" y2="1">
      <stop offset="0" stop-color="#f8f4ee"/>
      <stop offset="1" stop-color="#ffffff"/>
    </linearGradient>
    <filter id="shadow" x="-20%" y="-20%" width="140%" height="140%">
      <feDropShadow dx="0" dy="24" stdDeviation="30" flood-color="#000" flood-opacity=".22"/>
    </filter>
  </defs>
  <rect width="900" height="1200" fill="url(#bg)"/>
  <circle cx="742" cy="150" r="56" fill="#f6f1eb" stroke="#d8cec0" stroke-width="6"/>
  <circle cx="158" cy="100" r="24" fill="#fff" stroke="#d8cec0" stroke-width="5"/>
  <g filter="url(#shadow)">
    <circle cx="450" cy="236" r="68" fill="#151515"/>
    <path d="M355 337 H545 L625 955 C520 1000 382 1000 276 955 Z" fill="#090909"/>
    <path d="M450 337 L386 947 H514 Z" fill="#f7f2eb"/>
    <path d="M382 337 L450 610 L518 337" fill="none" stroke="#f7f2eb" stroke-width="18" stroke-linejoin="round"/>
    <path d="M450 395 l-45 58 45 58 45-58z" fill="#050505"/>
    <path d="M338 384 C278 498 244 660 232 858" stroke="#090909" stroke-width="54" stroke-linecap="round" fill="none"/>
    <path d="M562 384 C622 498 656 660 668 858" stroke="#090909" stroke-width="54" stroke-linecap="round" fill="none"/>
    <path d="M348 520 L5523 520" stroke="#fff" stroke-width="6" opacity=".22"/>
    <path d="M348 640 L552 640" stroke="#fff" stroke-width="6" opacity=".16"/>
  </g>
  <g fill="#f8f4ee" stroke="#d3c9bc" stroke-width="4">
    <circle cx="650" cy="280" r="13"/><circle cx="672" cy="300" r="10"/><circle cx="690" cy="320" r="8"/>
  </g>
  <text x="450" y="1085" text-anchor="middle" fill="#121212" font-family="Georgia, serif" font-size="58" letter-spacing="3">BLACK TIE</text>
</svg>
